<?xml version="1.0" encoding="iso-8859-1"?>
<!-- Generator: Adobe Illustrator 19.0.0, SVG Export Plug-In . SVG Version: 6.00 Build 0)  -->
<svg xmlns="http://www.w3.org/2000/svg" xmlns:xlink="http://www.w3.org/1999/xlink" version="1.1" id="Layer_1" x="0px" y="0px" viewBox="0 0 512 512" style="enable-background:new 0 0 512 512;" xml:space="preserve" width="512px" height="512px">
<g>
	<g>
		<path d="M358.4,78.831V59.733c0-4.71-3.823-8.533-8.533-8.533H8.533C3.823,51.2,0,55.023,0,59.733v392.533    c0,4.71,3.823,8.533,8.533,8.533h341.333c4.71,0,8.533-3.823,8.533-8.533v-19.106C446.464,420.617,512,345.89,512,256    C512,166.101,446.464,91.383,358.4,78.831z M34.133,93.867c0-4.71,3.823-8.533,8.533-8.533h51.2c4.71,0,8.533,3.823,8.533,8.533    s-3.823,8.533-8.533,8.533H51.2v136.533c0,4.71-3.823,8.533-8.533,8.533c-4.71,0-8.533-3.823-8.533-8.533V93.867z M179.2,426.667    H42.667c-4.71,0-8.533-3.823-8.533-8.533v-93.867c0-4.71,3.823-8.533,8.533-8.533c4.71,0,8.533,3.823,8.533,8.533V409.6h128    c4.71,0,8.533,3.823,8.533,8.533C187.733,422.844,183.91,426.667,179.2,426.667z M324.267,418.133c0,4.71-3.823,8.533-8.533,8.533    h-51.2c-4.71,0-8.533-3.823-8.533-8.533c0-4.71,3.823-8.533,8.533-8.533H307.2V238.933c0-4.71,3.823-8.533,8.533-8.533    s8.533,3.823,8.533,8.533V418.133z M324.267,153.6c0,4.71-3.823,8.533-8.533,8.533s-8.533-3.823-8.533-8.533v-51.2h-128    c-4.71,0-8.533-3.823-8.533-8.533s3.823-8.533,8.533-8.533h136.533c4.71,0,8.533,3.823,8.533,8.533V153.6z M358.4,221.943    c10.539,7.927,17.067,20.463,17.067,34.057c0,13.594-6.528,26.129-17.067,34.057V221.943z M358.4,416.111V309.717    c20.591-9.83,34.133-30.618,34.133-53.717s-13.542-43.887-34.133-53.726V95.889C436.873,108.228,494.933,175.471,494.933,256    C494.933,336.521,436.873,403.763,358.4,416.111z" fill="#d1d1d1"/>
	</g>
</g>
<g>
</g>
<g>
</g>
<g>
</g>
<g>
</g>
<g>
</g>
<g>
</g>
<g>
</g>
<g>
</g>
<g>
</g>
<g>
</g>
<g>
</g>
<g>
</g>
<g>
</g>
<g>
</g>
<g>
</g>
</svg>
