<?xml version="1.0" encoding="utf-8"?>
<!-- Generator: Adobe Illustrator 20.1.0, SVG Export Plug-In . SVG Version: 6.00 Build 0)  -->
<svg version="1.1" id="Capa_1" xmlns="http://www.w3.org/2000/svg" xmlns:xlink="http://www.w3.org/1999/xlink" x="0px" y="0px"
	 viewBox="0 0 512 512" style="enable-background:new 0 0 512 512;" xml:space="preserve">
<style type="text/css">
	.st0{fill:#F4F4F4;}
</style>
<g>
	<g>
		<path class="st0" d="M430.4,0H81.6c-9.8,0-17.7,7.9-17.7,17.7v476.6c0,9.8,7.9,17.7,17.7,17.7h348.9c9.8,0,17.7-7.9,17.7-17.7
			V17.7C448.1,7.9,440.2,0,430.4,0z M125.1,44.2c13.6,0,24.6,11.1,24.6,24.6c0,13.6-11.1,24.6-24.6,24.6s-24.6-11.1-24.6-24.6
			C100.5,55.2,111.5,44.2,125.1,44.2z M125.1,467.8c-13.6,0-24.6-11.1-24.6-24.6c0-13.6,11.1-24.6,24.6-24.6s24.6,11.1,24.6,24.6
			C149.8,456.8,138.7,467.8,125.1,467.8z M283.1,395.5l21.9-62.4c1.7-4.8,0.1-10.3-4.2-13.5c-5.3-3.8-12.6-2.6-16.4,2.7l-52.9,73.6
			C164.8,384.3,114,326,114,256c0-78.5,63.6-142.1,142.1-142.1S398.2,177.5,398.2,256C398.1,325.2,348.6,382.8,283.1,395.5z
			 M386.9,467.8c-13.6,0-24.6-11.1-24.6-24.6c0-13.6,11.1-24.6,24.6-24.6c13.6,0,24.6,11.1,24.6,24.6
			C411.5,456.8,400.5,467.8,386.9,467.8z M386.9,93.5c-13.6,0-24.6-11.1-24.6-24.6c0-13.6,11.1-24.6,24.6-24.6
			c13.6,0,24.6,11.1,24.6,24.6S400.5,93.5,386.9,93.5z"/>
		<circle class="st0" cx="256" cy="256" r="38.7"/>
	</g>
</g>
</svg>
