<svg xmlns="http://www.w3.org/2000/svg" viewBox="0 0 359.15 43.92"><defs><style>.cls-1{fill:#e92a31;}.cls-2{fill:#a8a8a8;}</style></defs><title>регард22</title><g id="Слой_2" data-name="Слой 2"><g id="Слой_1-2" data-name="Слой 1"><path class="cls-1" d="M16.86.54c11.76,0,15.78,4.26,15.78,15.3s-4.56,15.3-15.78,15.3H10.74v9.18c0,2.46-.66,3.06-3.06,3.06H0V3.6C0,1.14.6.54,3.06.54ZM10.74,10.2V22h6.6c4.08,0,5.1-.48,5.1-6.12,0-5.16-1-5.64-5.1-5.64Z"/><path class="cls-1" d="M66.72.54v6.6c0,2.46-.6,3.06-3,3.06H49.38v6.12H65.7v7.2c0,2.46-.66,3-3.06,3H49.38v7.14H66.72v6.6c0,2.58-.6,3.12-3,3.12H38.64V3.54c0-2.4.66-3,3.12-3Z"/><path class="cls-1" d="M72.72,3.54c0-2.4.66-3,3.12-3H99.78v6.6c0,2.46-.66,3.06-3.06,3.06H83.46V40.38c0,2.4-.6,3-3.06,3H72.72Z"/><path class="cls-1" d="M98.82,37.26a10.3,10.3,0,0,1,.48-3.54l9.24-29.58c.78-2.82,2.46-3.6,5.52-3.6h7.2c3.06,0,4.68.78,5.58,3.6L136,33.72a8.78,8.78,0,0,1,.54,3.54v6.12h-6.12c-2.88,0-3.54-.66-4.14-3L125,35.22H110.4L109,40.38c-.48,2.22-1.14,3-4,3H98.82ZM122.46,26,117.84,9.18h-.3L112.92,26Z"/><path class="cls-1" d="M159.42.54c11.76,0,15.78,4.26,15.78,15.3s-4.56,15.3-15.78,15.3H153.3v9.18c0,2.46-.66,3.06-3.06,3.06h-7.68V3.6c0-2.46.6-3.06,3.06-3.06ZM153.3,10.2V22h6.6c4.08,0,5.1-.48,5.1-6.12,0-5.16-1-5.64-5.1-5.64Z"/><path class="cls-1" d="M173.64,43.38v-6.6c0-2.46.6-3.12,3-3.12H180l2.28-30.12c.24-2.4,1.14-3,3.12-3h21.36c1.92,0,2.88.6,3.12,3l2.28,30.12h5.34v6.6c0,2.46-.6,3.12-3.06,3.12ZM191,30.12a31.24,31.24,0,0,1-.54,3.54H201.6l-.48-3.54-1.5-19.92h-7.14Z"/><path class="cls-2" d="M231.78,32.64v7.74c0,2.4-.6,3-3.06,3H221.1V35.76c0-2.46.6-3.12,3-3.12Z"/><path class="cls-2" d="M246.72,24.54c0,8.16,1,9.18,11.22,9.18h5.16c2.46,0,3.06.6,3.06,3.06v6.6h-8.22c-15.66,0-22-2.7-22-18.84v-5.1c0-16.14,6.3-18.9,22-18.9h8.22v6.6c0,2.46-.6,3.06-3.06,3.06h-5.16c-10.2,0-11.22,1.08-11.22,9.24Z"/><path class="cls-2" d="M306.24,19.44v5.1c0,16.14-5.76,19.38-17.34,19.38s-17.34-3.24-17.34-19.38v-5.1C271.56,3.24,277.32,0,288.9,0S306.24,3.24,306.24,19.44Zm-10.68,0c0-9.3-1-9.72-6.66-9.72s-6.6.42-6.6,9.72v5.1c0,9.18,1,9.66,6.6,9.66s6.66-.48,6.66-9.66Z"/><path class="cls-2" d="M348.48.54h7.62c2.46,0,3.06.6,3.06,3V43.38h-7.62c-2.46,0-3.06-.6-3.06-3V22.5L339.9,39.9a4.71,4.71,0,0,1-8.34,0L323,22.5V40.38c0,2.4-.66,3-3.12,3h-7.62V3.48c0-2.46.6-2.94,3-2.94H323l12.72,27Z"/></g></g></svg>