<?xml version="1.0" encoding="utf-8"?>
<!-- Generator: Adobe Illustrator 20.1.0, SVG Export Plug-In . SVG Version: 6.00 Build 0)  -->
<svg version="1.1" id="Capa_1" xmlns="http://www.w3.org/2000/svg" xmlns:xlink="http://www.w3.org/1999/xlink" x="0px" y="0px"
	 viewBox="0 0 512 512" style="enable-background:new 0 0 512 512;" xml:space="preserve">
<style type="text/css">
	.st0{fill:#F4F4F4;}
</style>
<path class="st0" d="M345.9,373.2c-22.5,0-40.8-18.3-40.8-40.8V268c0-22.5,18.3-40.8,40.8-40.8h152.6v-68
	c0-24.9-20.2-45.1-45.1-45.1h-30.6l-8.1-51.3c-0.6-4-2.9-7.5-6.2-9.7s-7.4-2.9-11.3-2L363,59.6l-12.2-25.7c-1.7-3.5-4.7-6.2-8.4-7.4
	c-3.7-1.2-7.7-0.9-11.2,0.9l-165.3,86.8H45.1C20.2,114.1,0,134.3,0,159.2v282c0,24.9,20.2,45.1,45.1,45.1h408.3
	c24.9,0,45.1-20.2,45.1-45.1v-68L345.9,373.2L345.9,373.2z M388.9,82.7l5,31.5h-5L375.5,86L388.9,82.7z M331.3,59.6l25.9,54.5H227.5
	L331.3,59.6z M345.9,255.9h153.9c6.7,0,12.2,5.5,12.2,12.2v64.4c0,6.7-5.5,12.2-12.2,12.2H345.9c-6.7,0-12.2-5.5-12.2-12.2V268
	C333.7,261.3,339.2,255.9,345.9,255.9z"/>
</svg>
