<?xml version="1.0" encoding="utf-8"?>
<!-- Generator: Adobe Illustrator 20.1.0, SVG Export Plug-In . SVG Version: 6.00 Build 0)  -->
<svg version="1.1" id="Capa_1" xmlns="http://www.w3.org/2000/svg" xmlns:xlink="http://www.w3.org/1999/xlink" x="0px" y="0px"
	 viewBox="0 0 512 512" style="enable-background:new 0 0 512 512;" xml:space="preserve">
<style type="text/css">
	.st0{fill:#F4F4F4;}
</style>
<g>
	<g>
		<g>
			<path class="st0" d="M109.1,403.1h210.6c4.6,0,8.2-15.1,8.9-23.6H100.2C100.9,388,104.5,403.1,109.1,403.1z"/>
		</g>
		<g>
			<path class="st0" d="M361,403.1h96.1c4.6,0,8.3-15.1,8.9-23.6H352C352.7,388,356.3,403.1,361,403.1z"/>
		</g>
		<g>
			<path class="st0" d="M62.6,142.9v-25.5c0-4.7-3.8-8.4-8.4-8.4H8.4c-4.6,0-8.4,3.8-8.4,8.4c0,4.7,3.8,8.4,8.4,8.4h37.4v56.4H8.4
				v13.1h37.4v16.3H8.4v91.6h37.4v16.3H8.4v13.1h37.4v62.1c0,4.6,3.8,8.4,8.4,8.4s8.4-3.8,8.4-8.4v-22.9H512V142.8L62.6,142.9
				L62.6,142.9z M261.7,291.7H100c-6.3,0-11.5-5.1-11.5-11.4s5.1-11.5,11.5-11.5h161.8c6.3,0,11.5,5.1,11.5,11.5
				C273.2,286.6,268,291.7,261.7,291.7z M261.7,245.9H100c-6.3,0-11.5-5.1-11.5-11.4c0-6.3,5.1-11.5,11.5-11.5h161.8
				c6.3,0,11.5,5.1,11.5,11.5C273.2,240.8,268,245.9,261.7,245.9z M391.7,346.5c-50,0-90.5-40.5-90.5-90.5s40.5-90.5,90.5-90.5
				c49.9,0,90.5,40.5,90.5,90.5S441.6,346.5,391.7,346.5z"/>
		</g>
		<g>
			<path class="st0" d="M439.8,203c-15.2,8.7-26.3,17.8-34.6,27c-3.8-2-8-3.2-12.6-3.4c1.4-12,6.1-26,17.4-44.3
				c-12.3,0-24.6,0-36.8,0c-2.6,21.8-0.9,37,2.8,48.8c-3.8,2.4-7,5.6-9.4,9.4c-9.6-7-19.4-16.9-29.4-30.8
				c-5.1,11.3-10.1,18.9-18.6,25.4c17.5,13,31.5,19.3,43.7,22.1c0.2,4.6,1.4,8.9,3.4,12.7c-11.1,4.8-25.7,7.7-47.1,7
				c10.2,13,19.4,22.5,24.9,32.1c15.2-8.7,26.3-17.8,34.5-27c3.8,2,8.1,3.2,12.6,3.4c-1.4,12-6.1,26.1-17.4,44.3
				c12.3,0,24.6,0,36.8,0c2.6-21.8,0.9-37-2.8-48.8c3.8-2.4,7-5.6,9.4-9.4c9.6,7,19.4,16.9,29.5,30.8c5.1-11.3,10.1-18.9,18.6-25.4
				c-17.5-13-31.5-19.3-43.7-22.1c-0.2-4.6-1.4-8.9-3.5-12.7c11.2-4.7,25.8-7.7,47.1-7C454.4,222.1,445.3,212.6,439.8,203z
				 M391.6,265.2c-5.1,0-9.2-4.1-9.2-9.2s4.1-9.2,9.2-9.2c5.1,0,9.2,4.1,9.2,9.2S396.7,265.2,391.6,265.2z"/>
		</g>
	</g>
</g>
</svg>
