<?xml version="1.0" encoding="iso-8859-1"?>
<!-- Generator: Adobe Illustrator 19.0.0, SVG Export Plug-In . SVG Version: 6.00 Build 0)  -->
<svg xmlns="http://www.w3.org/2000/svg" xmlns:xlink="http://www.w3.org/1999/xlink" version="1.1" id="Capa_1" x="0px" y="0px" viewBox="0 0 508 508" style="enable-background:new 0 0 508 508;" xml:space="preserve" width="512px" height="512px">
<g>
	<g>
		<g>
			<path d="M458.8,114.7v-28l-37.6-37.6h-28V0h-16.4v49.2h-49.2V0h-16.4v49.2H262V0h-16.4v49.2h-49.2V0H180v49.2h-49.2V0h-16.4v49.2     h-28L49.2,86.7v28H0v16.4h49.2v49.2H0v16.4h49.2v49.2H0v16.4h49.2v49.2H0v16.4h49.2v49.2H0v16.4h49.2v28l37.6,37.6h28V508h16.4     v-49.2h49.2V508h16.4v-49.2H246V508h16.4v-49.2h49.2V508H328v-49.2h49.2V508h16.4v-49.2h28l37.6-37.6v-28H508v-16.4h-49.2v-49.2     H508v-16.4h-49.2V262H508v-16.4h-49.2v-49.2H508V180h-49.2v-49.2H508v-16.1H458.8z M442.5,414.5l-28,28h-321l-28-28v-321l28-28     h321l28,28V414.5z" fill="#393939"/>
			<path d="M98.3,409.7h311.4V98.3H98.3V409.7z M114.7,114.7h278.6v278.6H114.7V114.7z" fill="#393939"/>
		</g>
	</g>
</g>
<g>
</g>
<g>
</g>
<g>
</g>
<g>
</g>
<g>
</g>
<g>
</g>
<g>
</g>
<g>
</g>
<g>
</g>
<g>
</g>
<g>
</g>
<g>
</g>
<g>
</g>
<g>
</g>
<g>
</g>
</svg>
