<?xml version="1.0" encoding="iso-8859-1"?>
<!-- Generator: Adobe Illustrator 19.0.0, SVG Export Plug-In . SVG Version: 6.00 Build 0)  -->
<svg xmlns="http://www.w3.org/2000/svg" xmlns:xlink="http://www.w3.org/1999/xlink" version="1.1" id="Capa_1" x="0px" y="0px" viewBox="0 0 512 512" style="enable-background:new 0 0 512 512;" xml:space="preserve" width="512px" height="512px">
<g>
	<g>
		<path d="M437.02,74.981C388.667,26.628,324.38,0,256,0S123.333,26.628,74.981,74.981C26.629,123.334,0,187.62,0,256    s26.628,132.667,74.981,181.02C123.334,485.373,187.62,512,256,512s132.667-26.628,181.02-74.98    C485.371,388.667,512,324.38,512,256S485.371,123.333,437.02,74.981z M426.384,426.384    C380.872,471.895,320.362,496.959,256,496.959c-64.363,0-124.873-25.064-170.384-70.575C40.105,380.873,15.041,320.363,15.041,256    S40.105,131.127,85.616,85.616C131.127,40.105,191.637,15.041,256,15.041c64.362,0,124.872,25.064,170.384,70.575    c45.511,45.511,70.575,106.021,70.575,170.384S471.895,380.873,426.384,426.384z" fill="#393939"/>
	</g>
</g>
<g>
	<g>
		<path d="M256,184.64c-39.348,0-71.36,32.012-71.36,71.36c0,39.348,32.012,71.36,71.36,71.36c39.348,0,71.361-32.012,71.361-71.36    C327.361,216.652,295.348,184.64,256,184.64z M256,312.319c-31.055,0-56.319-25.264-56.319-56.319s25.265-56.319,56.319-56.319    c31.055,0,56.32,25.265,56.32,56.319S287.055,312.319,256,312.319z" fill="#393939"/>
	</g>
</g>
<g>
	<g>
		<path d="M280.614,231.385c-6.574-6.575-15.316-10.196-24.615-10.196c-1.162,0-2.316,0.057-3.457,0.168    c-7.992,0.783-15.404,4.274-21.157,10.027c-13.573,13.573-13.573,35.656,0,49.228c5.753,5.753,13.165,9.244,21.157,10.027    c1.142,0.112,2.295,0.168,3.457,0.168c2.907,0.003,5.758-0.351,8.506-1.038c6.045-1.511,11.59-4.635,16.11-9.155    c5.753-5.753,9.244-13.164,10.027-21.157c0.112-1.142,0.168-2.295,0.168-3.458C290.81,246.701,287.189,237.959,280.614,231.385z     M265.84,265.84c-5.426,5.426-14.254,5.426-19.68,0c-2.628-2.628-4.076-6.123-4.076-9.84s1.448-7.211,4.076-9.84    c2.628-2.628,6.123-4.076,9.84-4.076s7.211,1.448,9.84,4.076c2.628,2.628,4.076,6.123,4.076,9.84S268.469,263.211,265.84,265.84z" fill="#393939"/>
	</g>
</g>
<g>
	<g>
		<path d="M383.394,248.48c-4.153,0-7.52,3.367-7.52,7.52c0,66.098-53.775,119.873-119.873,119.873    c-4.154,0-7.521,3.367-7.521,7.521c0,4.153,3.367,7.52,7.52,7.52c74.392,0,134.914-60.522,134.914-134.914    C390.914,251.847,387.547,248.48,383.394,248.48z" fill="#393939"/>
	</g>
</g>
<g>
	<g>
		<path d="M256,121.086c-74.392,0-134.914,60.522-134.914,134.914c0,4.153,3.367,7.52,7.52,7.52c4.153,0,7.52-3.367,7.52-7.52    c0-66.098,53.775-119.873,119.873-119.873c4.155,0,7.521-3.367,7.521-7.521C263.52,124.453,260.153,121.086,256,121.086z" fill="#393939"/>
	</g>
</g>
<g>
	<g>
		<path d="M451.181,248.48c-4.154,0-7.52,3.367-7.52,7.52c0,11.783-1.099,23.576-3.266,35.05c-0.771,4.081,1.913,8.014,5.995,8.785    c0.471,0.089,0.941,0.132,1.404,0.132c3.544,0,6.7-2.517,7.381-6.126c2.339-12.392,3.526-25.123,3.526-37.841    C458.701,251.847,455.334,248.48,451.181,248.48z" fill="#393939"/>
	</g>
</g>
<g>
	<g>
		<path d="M439.184,323.947c-3.837-1.594-8.238,0.221-9.831,4.056c-14.066,33.823-37.571,62.628-67.974,83.299    C330.245,432.471,293.805,443.66,256,443.66c-4.153,0-7.52,3.367-7.52,7.52c0,4.153,3.367,7.52,7.52,7.52    c40.834,0,80.197-12.089,113.836-34.961c32.83-22.321,58.213-53.429,73.404-89.962    C444.835,329.944,443.019,325.542,439.184,323.947z" fill="#393939"/>
	</g>
</g>
<g>
	<g>
		<path d="M65.515,212.589c-4.086-0.765-8.01,1.931-8.772,6.013c-2.285,12.251-3.444,24.833-3.444,37.398    c0,4.153,3.367,7.52,7.52,7.52c4.153,0,7.52-3.367,7.52-7.52c0-11.642,1.073-23.296,3.189-34.639    C72.29,217.278,69.598,213.35,65.515,212.589z" fill="#393939"/>
	</g>
</g>
<g>
	<g>
		<path d="M256,53.299c-40.913,0-80.341,12.133-114.021,35.087C109.106,110.79,83.727,142,68.586,178.641    c-1.586,3.839,0.24,8.236,4.078,9.823c0.94,0.388,1.912,0.572,2.869,0.572c2.953,0,5.755-1.751,6.953-4.65    c14.018-33.926,37.52-62.824,67.964-83.572C181.622,79.569,218.121,68.339,256,68.339c4.154,0,7.52-3.367,7.52-7.52    C263.52,56.666,260.153,53.299,256,53.299z" fill="#393939"/>
	</g>
</g>
<g>
</g>
<g>
</g>
<g>
</g>
<g>
</g>
<g>
</g>
<g>
</g>
<g>
</g>
<g>
</g>
<g>
</g>
<g>
</g>
<g>
</g>
<g>
</g>
<g>
</g>
<g>
</g>
<g>
</g>
</svg>
