<?xml version="1.0" encoding="utf-8"?>
<!-- Generator: Adobe Illustrator 20.1.0, SVG Export Plug-In . SVG Version: 6.00 Build 0)  -->
<svg version="1.1" id="Capa_1" xmlns="http://www.w3.org/2000/svg" xmlns:xlink="http://www.w3.org/1999/xlink" x="0px" y="0px"
	 viewBox="0 0 512 512" style="enable-background:new 0 0 512 512;" xml:space="preserve">
<style type="text/css">
	.st0{fill:#F4F4F4;}
</style>
<g>
	<g>
		<path class="st0" d="M314.8,485.9c0,14.4,11.7,26.1,26.1,26.1c14.4,0,26.1-11.7,26.1-26.1v-42.1h-52.1L314.8,485.9L314.8,485.9z"
			/>
		<path class="st0" d="M314.8,26.1v42.1h52.1V26.1c0-14.4-11.7-26.1-26.1-26.1S314.8,11.7,314.8,26.1z"/>
		<path class="st0" d="M229.9,26.1v42.1h52.2V26.1C282.1,11.7,270.4,0,256,0C241.6,0,229.9,11.7,229.9,26.1z"/>
		<path class="st0" d="M229.9,485.9c0,14.4,11.7,26.1,26.1,26.1c14.4,0,26.1-11.7,26.1-26.1v-42.1h-52.2V485.9z"/>
		<path class="st0" d="M145.1,26.1v42.1h52.1V26.1c0-14.4-11.7-26.1-26.1-26.1S145.1,11.7,145.1,26.1z"/>
		<path class="st0" d="M145.1,485.9c0,14.4,11.7,26.1,26.1,26.1s26.1-11.7,26.1-26.1v-42.1h-52.2V485.9z"/>
		<path class="st0" d="M0,340.8c0,14.4,11.7,26.1,26.1,26.1h42.1v-52.1H26.1C11.7,314.8,0,326.4,0,340.8z"/>
		<path class="st0" d="M485.9,314.8h-42.1v52.1h42.1c14.4,0,26.1-11.7,26.1-26.1S500.3,314.8,485.9,314.8z"/>
		<path class="st0" d="M0,256c0,14.4,11.7,26.1,26.1,26.1h42.1v-52.2H26.1C11.7,229.9,0,241.6,0,256z"/>
		<path class="st0" d="M485.9,229.9h-42.1v52.2h42.1c14.4,0,26.1-11.7,26.1-26.1C512,241.6,500.3,229.9,485.9,229.9z"/>
		<path class="st0" d="M0,171.2c0,14.4,11.7,26.1,26.1,26.1h42.1v-52.2H26.1C11.7,145.1,0,156.8,0,171.2z"/>
		<path class="st0" d="M485.9,145.1h-42.1v52.1h42.1c14.4,0,26.1-11.7,26.1-26.1S500.3,145.1,485.9,145.1z"/>
		<path class="st0" d="M93.3,391.6c0,15,12.2,27.2,27.2,27.2h271.1c15,0,27.2-12.2,27.2-27.2V120.4c0-15-12.2-27.2-27.2-27.2H120.4
			c-15,0-27.2,12.2-27.2,27.2V391.6z"/>
	</g>
</g>
</svg>
