<?xml version="1.0" encoding="utf-8"?>
<!-- Generator: Adobe Illustrator 21.0.0, SVG Export Plug-In . SVG Version: 6.00 Build 0)  -->
<svg version="1.1" id="Слой_1" xmlns="http://www.w3.org/2000/svg" xmlns:xlink="http://www.w3.org/1999/xlink" x="0px" y="0px"
	 viewBox="0 0 725.2 114.2" style="enable-background:new 0 0 725.2 114.2;" xml:space="preserve">
<style type="text/css">
	.st0{fill:#FFFFFF;}
	.st1{fill:#B32025;}
</style>
<g>
	<path class="st0" d="M196.8,55.4L216.1,36v70.6h-19.3V55.4z"/>
	<path class="st0" d="M244.7,59.3c3.8-3.4,8.1-5.1,13-5.1h22.4l18-18.1h-39.6c-10.3,0-19.2,3.5-26.7,10.6
		c-7.5,7-11.3,15.5-11.3,25.4c0,9.5,3.2,17.7,9.6,24.4c6.4,6.7,14.3,10.1,23.8,10.1h26.2V62.7h-17.4v26.1H255
		c-4.5,0-8.3-1.7-11.3-5.1c-3-3.4-4.6-7.3-4.6-11.9C239.1,66.9,241,62.7,244.7,59.3z"/>
	<path class="st0" d="M284.5,55.4L303.8,36v70.6h-19.3V55.4z"/>
	<polygon class="st0" points="370.9,36 327.8,36 309.6,54.2 327.1,54.2 327.1,106.5 346.4,106.5 346.4,54.2 352.7,54.2 	"/>
	<path class="st0" d="M358.3,83.6L405.7,36h16.7v70.5h-19.3v-9.1h-30.5L390,80.2h13.2V61.5l-44.9,45V83.6z"/>
	<polygon class="st0" points="447.3,88.8 447.3,54.2 447.3,36 427.9,55.4 427.9,106.5 447.3,106.5 472.5,106.5 472.5,88.8 	"/>
	<polygon class="st1" points="497,54.2 522,54.2 540.2,36 497,36 477.6,55.4 477.6,106.5 497,106.5 497,80.1 522.2,80.1 522.2,62.8 
		497,62.8 	"/>
	<path class="st1" d="M584,80c0,7.6-2.8,14.1-8.5,19.4c-5.7,5.4-12.3,8.1-20.1,8.1c-7.7,0-14.3-2.7-19.8-8
		c-5.5-5.3-8.3-11.8-8.3-19.5V55.3L546.7,36v44.2c0,2.4,0.9,4.4,2.7,6.1c1.8,1.7,4,2.5,6.5,2.5c2.4,0,4.5-0.8,6.3-2.5
		c1.8-1.6,2.7-3.7,2.7-6.1V63.4V47.9V36H584v9.6V80z"/>
	<path class="st1" d="M643.7,73.8c4.2-4.2,6.3-9.4,6.3-15.7c0-7.4-2.1-12.9-6.3-16.6c-4.2-3.7-9.9-5.5-17.1-5.5h-18.7l-19.3,19.4
		v51.1h19.3V54.1h13.5c3.2,0,5.5,0.7,6.8,1.9c1.3,1.3,2,3.1,2,5.4c0,2.3-0.8,4.2-2.3,5.7c-1.5,1.5-3.7,2.3-6.5,2.3h-9.3l37.4,37.4
		V84.3l-8.2-8.4C642.1,75.3,642.9,74.6,643.7,73.8z"/>
	<polygon class="st1" points="725.2,36 700.6,36 672.6,64 672.6,36 653.3,55.4 653.3,106.5 672.6,106.5 672.6,89.6 	"/>
	<g>
		<path class="st0" d="M137.9,73.3c2.7-2,5.3-4,8-6v-13l9.4-0.2c2.4,0,4.6,0.4,6.7,1.2c2.9-2.1,6.7-4.8,7.5-5.5
			c2.7-2,5.4-3.9,8.2-5.8c-2.9-2.3-6-4-9.3-5.4c-2.6,1.4-5.2,2.8-7.8,4.1l-10.9,6c-7.3,4-14.5,8-21.7,12.1
			c6.7-4.8,13.5-9.6,20.3-14.4l10.2-7.1c1.2-0.8,2.4-1.7,3.6-2.5c-2.6-0.5-5.4-0.8-8.2-0.8h-8.1c0,0-6.7,6.7-9,9
			c-2.6,2.6-10.4,10.4-10.4,10.4v51.1h19.3V68.5C143.2,70.1,140.6,71.7,137.9,73.3z"/>
		<path class="st0" d="M187.6,55.2c-1.5-2.7-3.5-5.2-5.8-7.5c-3.3,1.8-6.7,3.7-10,5.7c-0.8,0.5-3.8,2.2-6.5,3.8
			c1,0.7,1.9,1.4,2.8,2.3c2.1,2.1,3.6,4.5,4.5,7.1c2.8-2.1,6.2-4.7,8-6.1C182.9,58.7,185.2,56.9,187.6,55.2z"/>
		<path class="st0" d="M181.7,82.2c-8.1,5.3-16.2,10.6-24.2,16c7.5-6.1,15-12.2,22.6-18.2c3.8-3,7.6-6,11.4-9
			c0.1-0.1,0.3-0.2,0.4-0.3c-0.1-3.9-0.9-7.5-2.2-11c-2.3,1.4-4.6,2.7-6.9,4.1c-2.1,1.4-6.5,4-9.6,5.9c0.1,0.7,0.1,1.5,0.1,2.3
			c0,4.6-1.5,8.6-4.6,12c-3,3.4-6.8,5.1-11.3,5.1h-7.9v17.5h9c9.4,0,17.4-3.4,23.8-10.1c5.6-5.8,8.7-12.8,9.4-20.8
			C188.4,77.8,185.1,80,181.7,82.2z"/>
	</g>
</g>
<g>
	<path class="st1" d="M84,12.1C82.2,5.3,70.9,0,70.9,0s-4.4,8.9-23.2,20.7c0,0-22.3-1.3-30.7,20.1c-2.6,1.3-4.4,3.3-5.3,5.1
		c-7.1,3-10.3,8.5-11.1,11.9L0,60.1l1.1,2.2c1,2,2.6,3.5,4.5,4.3l0.2,0.9c1.6,6.3,5.8,9.1,9.9,9.7C25.3,93.6,43,99.7,43,99.7
		C31,79.1,31.6,68.2,31.6,68.2C50,68,58.8,85.5,58.4,87.9c-5.5,2-16.5-0.6-16.5-0.6s-1.8,9.8,5.2,14.8c0,0,1.3,14,29.9,11.8
		c-2.7-1.8-4.4-3.6-4.7-4.9c0,0,3,1.3,5.7,1.2c-1.8-4.9-5.2-17.1,6-25.1l2.8,6.7c26.1-44.3,51.4-58.9,51.4-58.9S119.4,14.7,84,12.1z
		 M35.9,92.3c-3.5-2.2-14.4-9.1-18-19.8c4.7-0.3,8.3-3.1,8.6-3.4C26.7,71.2,27.9,81,35.9,92.3z M46,91.3c1.9,1.2,7.9,2.6,12.3,0.8
		c0.1,2.4-3.9,5.5-8,5.9C45.8,96.6,46,92.3,46,91.3z M89.5,75.2c-4-10.6-16.9-12-16.9-12s8.5,5.9,8.1,14.9c-0.9,0.7-5.1,4.1-8.6,8.9
		c-4.4,5.9-3.4,12.6-1.5,18c-3.1-0.4-7.4-2.4-7.4-2.4c0.9,2.6,3.2,4.9,4.8,5.8c-12.7-0.5-15.6-7.8-15.6-7.8c0.1,0,4.2-0.8,6.8-3
		c3.1-2.7,5.1-7,6-12.6l0-0.1l0-0.1c-0.1-0.4-2.9-9.2-13.3-14.2c4.7-0.3,10.4,1.9,10.4,1.9c0,0-6.5-10.4-27.4-10.5
		c-4,0-7.5,2.1-10.4,4.9c-0.6,0.6-1.4,1.1-2.2,1.6c-1,0.5-2.5,1.2-4,1.4c-1.7,0.2-3-0.3-3.9-1.4c-1-1.2-1.2-2.9-0.7-4.5
		c1-2.9,2.7-8.1,2.7-8.1s-5.1,3.8-7.1,4c-0.4,0-0.9,0-1.4-0.8c0.4-1.2,2.8-7.1,12.8-8.3c0.5-0.1,4.4-0.3,4.4-0.3l-6.4-2
		c0.5-0.7,1.6-1.8,3.7-2.1c0.6-0.1,1.3-0.1,2,0.1l0.4,0.1c10.8,4.7,16.7-0.6,19.2-2.7c-0.9,3.5,1.7,6.6,1.7,6.6s-0.1-4.2,3.8-7.4
		c2.6-2.2,4.7-3.3,3.5-10.3l-0.1-0.8c0,0-4.1,8.3-18.7,6.6c-4.9-0.6-5.8,3.5-6,4.7c-0.1,0-0.3,0.1-0.5,0.1c-0.8,0.1-2.1,0.1-2.7-0.6
		c-0.4-0.4-0.4-1-0.3-1.9c1.9-8.5,16-14.6,18.7-15.2c-0.1,0.7-3.2,6-2.7,5.9c5.2-0.6,26.6-13.3,32.8-22.1c1.6,1.1,6.9,5.7,4.4,14.1
		l-0.4,1.3l1.2-0.7c0.1-0.1,2.9-1.8,3.9-5.3c15.4,0.4,33.6,6.3,44.2,14.2C122,35.9,103,52.1,89.5,75.2z M30.5,44.7
		c0.1-1.1,1-4.2,5.1-3.3c3.9,0.8,7.2-0.5,7.2-0.5C36,48,30.5,44.7,30.5,44.7z"/>
</g>
</svg>
