<?xml version="1.0" encoding="utf-8"?>
<!-- Generator: Adobe Illustrator 21.0.0, SVG Export Plug-In . SVG Version: 6.00 Build 0)  -->
<svg version="1.1" id="Capa_1" xmlns="http://www.w3.org/2000/svg" xmlns:xlink="http://www.w3.org/1999/xlink" x="0px" y="0px"
	 viewBox="0 0 512 512" style="enable-background:new 0 0 512 512;" xml:space="preserve">
<style type="text/css">
	.st0{fill:#F4F4F4;}
</style>
<g>
	<g>
		<path class="st0" d="M357.3,288.2c3.3-0.8,6-2.2,8.1-4.1s3.9-5.2,5.3-9.7c1.4-4.5,2-10.6,2-18.3c0-7.7-0.7-13.7-2-17.8
			c-1.4-4.1-3.3-7.4-5.8-9.7c-2.4-2.3-5.6-3.9-9.3-4.7c-2.8-0.7-8.4-0.9-16.6-0.9H330v66.2h15.1
			C350.8,289.1,354.8,288.8,357.3,288.2z"/>
		<path class="st0" d="M76.5,29.4v453.2c0,16.3,13.2,29.4,29.4,29.4h300.1c16.3,0,29.4-13.2,29.4-29.4V29.4
			c0-16.3-13.2-29.4-29.4-29.4H105.9C89.7,0,76.5,13.2,76.5,29.4z M388.4,484.1c-7.7,0-14-6.3-14-14s6.3-14,14-14s14,6.3,14,14
			S396.2,484.1,388.4,484.1z M388.4,30.5c7.7,0,14,6.3,14,14s-6.3,14-14,14s-14-6.3-14-14C374.4,36.8,380.7,30.5,388.4,30.5z
			 M309.8,215.9c0-5.5,4.5-10,10-10h27c8.4,0,14.7,0.7,19,1.9c5.9,1.7,10.9,4.8,15.1,9.2s7.4,9.8,9.6,16.2
			c2.2,6.4,3.3,14.3,3.3,23.7c0,8.2-1.1,15.3-3.1,21.3c-2.5,7.3-6.1,13.2-10.7,17.7c-3.5,3.4-8.2,6.1-14.2,8
			c-4.5,1.4-10.4,2.1-17.9,2.1h-28.1c-5.5,0-10-4.5-10-10L309.8,215.9L309.8,215.9z M270.6,270.9c-1.4-1.7-3.8-3.1-7.2-4.3
			c-2.4-0.8-7.7-2.3-16.2-4.4c-10.8-2.7-18.4-6-22.8-9.9c-6.1-5.5-9.2-12.2-9.2-20.1c0-5.1,1.4-9.8,4.3-14.3
			c2.9-4.4,7.1-7.8,12.5-10.1s12-3.5,19.7-3.5c12.6,0,22,2.8,28.4,8.2c2.7,2.3,4.9,5,6.5,8c3.4,6.4-1.1,14.2-8.4,14.5h-0.6
			c-4,0.2-7.8-2-9.4-5.7c-1-2.2-2.2-3.8-3.8-5.1c-2.8-2.3-7.1-3.4-12.8-3.4c-5.9,0-10.4,1.2-13.8,3.6c-2.2,1.5-3.2,3.6-3.2,6.2
			c0,2.4,1,4.4,3,6.1c2.5,2.2,8.7,4.4,18.6,6.7c9.8,2.3,17.1,4.7,21.8,7.2c4.7,2.5,8.4,5.9,11.1,10.2c2.7,4.3,4,9.6,4,15.9
			c0,5.8-1.6,11.1-4.8,16.1c-3.2,5-7.7,8.7-13.5,11.2c-5.8,2.4-13.1,3.6-21.8,3.6c-12.7,0-22.3-2.9-29.1-8.8
			c-4-3.5-7.1-7.9-9.2-13.2c-2.4-6.1,1.8-12.8,8.3-13.5l0,0c4.4-0.4,8.6,2,10.3,6.1c1.3,3.2,3,5.7,5.3,7.6c3.6,3.1,8.5,4.6,14.7,4.6
			c6.5,0,11.4-1.4,14.7-4.1c3.3-2.8,4.9-6,4.9-9.7C272.7,274.6,272,272.5,270.6,270.9z M158.5,204.2c12.6,0,22,2.8,28.4,8.2
			c2.7,2.3,4.9,5,6.5,8c3.4,6.4-1.1,14.2-8.4,14.5h-0.6c-4,0.2-7.8-2-9.4-5.7c-1-2.2-2.2-3.8-3.8-5.1c-2.8-2.3-7.1-3.4-12.8-3.4
			c-5.9,0-10.5,1.2-13.8,3.6c-2.2,1.5-3.2,3.6-3.2,6.2c0,2.4,1,4.4,3,6.1c2.5,2.2,8.7,4.4,18.6,6.7c9.8,2.3,17.1,4.7,21.8,7.2
			c4.7,2.5,8.4,5.9,11.1,10.2c2.7,4.3,4,9.6,4,15.9c0,5.8-1.6,11.1-4.8,16.1c-3.2,5-7.7,8.7-13.5,11.2c-5.8,2.4-13.1,3.6-21.8,3.6
			c-12.7,0-22.3-2.9-29.1-8.8c-4-3.5-7.1-7.9-9.2-13.2c-2.4-6.1,1.8-12.8,8.3-13.5l0,0c4.4-0.4,8.6,2,10.3,6.1
			c1.3,3.2,3,5.7,5.3,7.6c3.6,3.1,8.5,4.6,14.7,4.6c6.5,0,11.4-1.4,14.7-4.1c3.3-2.8,4.9-6,4.9-9.7c0-2.4-0.7-4.4-2.1-6
			c-1.4-1.7-3.8-3.1-7.2-4.3c-2.4-0.8-7.7-2.3-16.2-4.4c-10.8-2.7-18.4-6-22.8-9.9c-6.1-5.5-9.2-12.2-9.2-20.1
			c0-5.1,1.4-9.8,4.3-14.3c2.9-4.4,7.1-7.8,12.5-10.1C144.2,205.4,150.8,204.2,158.5,204.2z M119.4,30.5c7.7,0,14,6.3,14,14
			s-6.3,14-14,14s-14-6.3-14-14S111.6,30.5,119.4,30.5z M119.4,456c7.7,0,14,6.3,14,14c0,7.7-6.3,14-14,14s-14-6.3-14-14
			C105.3,462.3,111.6,456,119.4,456z"/>
	</g>
</g>
</svg>
