<?xml version="1.0" encoding="utf-8"?>
<!-- Generator: Adobe Illustrator 20.1.0, SVG Export Plug-In . SVG Version: 6.00 Build 0)  -->
<svg version="1.1" id="Capa_1" xmlns="http://www.w3.org/2000/svg" xmlns:xlink="http://www.w3.org/1999/xlink" x="0px" y="0px"
	 viewBox="0 0 512 512" style="enable-background:new 0 0 512 512;" xml:space="preserve">
<style type="text/css">
	.st0{fill:#F4F4F4;}
</style>
<g>
	<g>
		<rect x="233.6" y="319.3" class="st0" width="44.7" height="42.2"/>
		<rect x="164.6" y="319.3" class="st0" width="44.7" height="42.2"/>
		<rect x="28.5" y="319.3" class="st0" width="42.8" height="42.2"/>
		<rect x="95.6" y="319.3" class="st0" width="44.7" height="42.2"/>
		<rect x="440.8" y="319.3" class="st0" width="42.8" height="42.2"/>
		<rect x="302.7" y="319.3" class="st0" width="44.7" height="42.2"/>
		<rect x="371.7" y="319.3" class="st0" width="44.7" height="42.2"/>
		<path class="st0" d="M484.9,150.6H27.1C12.1,150.6,0,162.7,0,177.6v18.6c15.7,0,28.5,12.8,28.5,28.5c0,15.7-12.8,28.5-28.5,28.5
			v45.6h512v-45.6c-15.7,0-28.5-12.8-28.5-28.5c0-15.8,12.8-28.5,28.5-28.5v-18.6C512,162.6,499.9,150.6,484.9,150.6z M137,234.9
			c0,14.9-12.1,27.1-27.1,27.1H89.4c-14.9,0-27.1-12.1-27.1-27.1v-20.6c0-14.9,12.1-27.1,27.1-27.1h20.6c14.9,0,27.1,12.1,27.1,27.1
			V234.9z M293.3,234.9c0,14.9-12.1,27.1-27.1,27.1h-20.6c-14.9,0-27.1-12.1-27.1-27.1v-20.6c0-14.9,12.1-27.1,27.1-27.1h20.6
			c14.9,0,27.1,12.1,27.1,27.1V234.9z M449.2,234.9c0,14.9-12.1,27.1-27.1,27.1h-20.6c-14.9,0-27.1-12.1-27.1-27.1v-20.6
			c0-14.9,12.1-27.1,27.1-27.1h20.6c14.9,0,27.1,12.1,27.1,27.1V234.9z"/>
	</g>
</g>
</svg>
